<?xml version="1.0" encoding="UTF-8" standalone="no"?>
<!DOCTYPE svg PUBLIC "-//W3C//DTD SVG 1.1//EN" "http://www.w3.org/Graphics/SVG/1.1/DTD/svg11.dtd">
<!-- Generated by Microsoft Visio, SVG Export NvTx.svg Page-1 -->
<svg xmlns="http://www.w3.org/2000/svg" xmlns:xlink="http://www.w3.org/1999/xlink" xmlns:ev="http://www.w3.org/2001/xml-events"
		xmlns:v="http://schemas.microsoft.com/visio/2003/SVGExtensions/" width="8.26772in" height="11.6929in"
		viewBox="0 0 595.276 841.89" xml:space="preserve" color-interpolation-filters="sRGB" class="st18">
	<v:documentProperties v:langID="1033" v:metric="true" v:viewMarkup="false">
		<v:userDefs>
			<v:ud v:nameU="msvSubprocessMaster" v:prompt="" v:val="VT4(Multi proc/doc)"/>
			<v:ud v:nameU="msvNoAutoConnect" v:val="VT0(0):26"/>
		</v:userDefs>
	</v:documentProperties>

	<style type="text/css">
	<![CDATA[
		.st1 {visibility:visible}
		.st2 {fill:#5b9bd5;fill-opacity:0.22;filter:url(#filter_2);stroke:#5b9bd5;stroke-opacity:0.22}
		.st3 {fill:#5b9bd5;stroke:#c8c8c8;stroke-width:0.25}
		.st4 {fill:#feffff;font-family:Calibri;font-size:1.00001em}
		.st5 {marker-end:url(#mrkr3-24);stroke:#5b9bd5;stroke-linecap:round;stroke-linejoin:round;stroke-width:1}
		.st6 {fill:#5b9bd5;fill-opacity:1;stroke:#5b9bd5;stroke-opacity:1;stroke-width:0.28409090909091}
		.st7 {marker-end:url(#mrkr3-24);stroke:#5b9bd5;stroke-width:1}
		.st8 {marker-end:url(#mrkr3-24);marker-start:url(#mrkr10-61);stroke:#5b9bd5;stroke-width:1}
		.st9 {fill:#538135;stroke:#c8c8c8;stroke-width:0.25}
		.st10 {fill:#c55a11;stroke:#c8c8c8;stroke-width:0.25}
		.st11 {marker-end:url(#mrkr3-24);marker-start:url(#mrkr10-61);stroke:#5b9bd5;stroke-linecap:round;stroke-linejoin:round;stroke-width:1}
		.st12 {fill:#a8d08d;stroke:#c8c8c8;stroke-width:0.25}
		.st13 {fill:#ffd965;stroke:#c8c8c8;stroke-width:0.25}
		.st14 {fill:none;stroke:none;stroke-width:0.25}
		.st15 {fill:#5b9bd5;font-family:Calibri;font-size:1.00001em}
		.st16 {font-size:1em}
		.st17 {stroke:#5b9bd5;stroke-linecap:round;stroke-linejoin:round;stroke-width:1}
		.st18 {fill:none;fill-rule:evenodd;font-size:12px;overflow:visible;stroke-linecap:square;stroke-miterlimit:3}
	]]>
	</style>

	<defs id="Markers">
		<g id="lend3">
			<path d="M 2 1 L 0 0 L 2 -1 " style="stroke-linecap:round;stroke-linejoin:round;fill:none"/>
		</g>
		<marker id="mrkr3-24" class="st6" v:arrowType="3" v:arrowSize="2" orient="auto" markerUnits="strokeWidth"
				overflow="visible">
			<use xlink:href="#lend3" transform="scale(-3.52,-3.52) "/>
		</marker>
		<g id="lend10">
			<path
					d="M 0 0.75 C -0.414214 0.75 -0.75 0.414214 -0.75 0 -0.75 -0.414214 -0.414214 -0.75 0 -0.75 0.414214 -0.75 0.75 -0.414214 0.75 0 0.75 0.414214 0.414214 0.75 0 0.75 Z "
					style="stroke:none"/>
		</g>
		<marker id="mrkr10-61" class="st6" v:arrowType="10" v:arrowSize="2" v:setback="2.28" refX="2.28" orient="auto"
				markerUnits="strokeWidth" overflow="visible">
			<use xlink:href="#lend10" transform="scale(3.52) "/>
		</marker>
	</defs>
	<defs id="Filters">
		<filter id="filter_2">
			<feGaussianBlur stdDeviation="2"/>
		</filter>
	</defs>
	<g v:mID="0" v:index="1" v:groupContext="foregroundPage">
		<v:userDefs>
			<v:ud v:nameU="msvThemeOrder" v:val="VT0(0):26"/>
		</v:userDefs>
		<title>Page-1</title>
		<v:pageProperties v:drawingScale="0.0393701" v:pageScale="0.0393701" v:drawingUnits="24" v:shadowOffsetX="4.25197"
				v:shadowOffsetY="-4.25197"/>
		<v:layer v:name="Connector" v:index="0"/>
		<v:layer v:name="Flowchart" v:index="1"/>
		<g id="shape1-1" v:mID="1" v:groupContext="shape" transform="translate(141.732,-609.449)">
			<title>Sheet.1</title>
			<desc>CRC16</desc>
			<v:textBlock v:margins="rect(2,2,2,2)" v:tabSpace="42.5197"/>
			<v:textRect cx="21.2598" cy="820.63" width="42.52" height="42.5197"/>
			<g id="shadow1-2" v:groupContext="shadow" v:shadowOffsetX="0.345598" v:shadowOffsetY="-1.97279" v:shadowType="1"
					transform="matrix(1,0,0,1,0.345598,1.97279)" class="st1">
				<ellipse cx="21.2598" cy="820.63" rx="21.2598" ry="21.2598" class="st2"/>
			</g>
			<ellipse cx="21.2598" cy="820.63" rx="21.2598" ry="21.2598" class="st3"/>
			<text x="5.52" y="824.23" class="st4" v:langID="1033"><v:paragraph v:horizAlign="1"/><v:tabList/>CRC16</text>		</g>
		<g id="shape2-7" v:mID="2" v:groupContext="shape" transform="translate(354.331,-609.449)">
			<title>Sheet.2</title>
			<desc>CRC16</desc>
			<v:textBlock v:margins="rect(2,2,2,2)" v:tabSpace="42.5197"/>
			<v:textRect cx="21.2598" cy="820.63" width="42.52" height="42.5197"/>
			<g id="shadow2-8" v:groupContext="shadow" v:shadowOffsetX="0.345598" v:shadowOffsetY="-1.97279" v:shadowType="1"
					transform="matrix(1,0,0,1,0.345598,1.97279)" class="st1">
				<ellipse cx="21.2598" cy="820.63" rx="21.2598" ry="21.2598" class="st2"/>
			</g>
			<ellipse cx="21.2598" cy="820.63" rx="21.2598" ry="21.2598" class="st3"/>
			<text x="5.52" y="824.23" class="st4" v:langID="1033"><v:paragraph v:horizAlign="1"/><v:tabList/>CRC16</text>		</g>
		<g id="shape4-13" v:mID="4" v:groupContext="shape" transform="translate(198.425,-609.449)">
			<title>Sheet.4</title>
			<desc>CRC16</desc>
			<v:textBlock v:margins="rect(2,2,2,2)" v:tabSpace="42.5197"/>
			<v:textRect cx="21.2598" cy="820.63" width="42.52" height="42.5197"/>
			<g id="shadow4-14" v:groupContext="shadow" v:shadowOffsetX="0.345598" v:shadowOffsetY="-1.97279" v:shadowType="1"
					transform="matrix(1,0,0,1,0.345598,1.97279)" class="st1">
				<ellipse cx="21.2598" cy="820.63" rx="21.2598" ry="21.2598" class="st2"/>
			</g>
			<ellipse cx="21.2598" cy="820.63" rx="21.2598" ry="21.2598" class="st3"/>
			<text x="5.52" y="824.23" class="st4" v:langID="1033"><v:paragraph v:horizAlign="1"/><v:tabList/>CRC16</text>		</g>
		<g id="shape5-19" v:mID="5" v:groupContext="shape" transform="translate(111.616,-630.692) rotate(0.361831)">
			<title>Sheet.5</title>
			<path d="M0 841.89 L35.43 841.89" class="st5"/>
		</g>
		<g id="shape6-25" v:mID="6" v:groupContext="shape" transform="translate(1004.88,154.488) rotate(90)">
			<title>Sheet.6</title>
			<path d="M0 841.89 L35.43 841.89" class="st5"/>
		</g>
		<g id="shape7-30" v:mID="7" v:groupContext="shape" transform="translate(1061.56,149.172) rotate(89.6382)">
			<title>Sheet.7</title>
			<path d="M0 841.89 L35.43 841.89" class="st5"/>
		</g>
		<g id="shape11-35" v:mID="11" v:groupContext="shape" transform="translate(183.977,-630.485) rotate(-0.018647)">
			<title>Sheet.11</title>
			<path d="M0 841.89 L14.18 841.89" class="st5"/>
		</g>
		<g id="shape12-40" v:mID="12" v:groupContext="shape" transform="translate(242.447,-630.707) rotate(0.102307)">
			<title>Sheet.12</title>
			<path d="M0 841.89 L113.39 841.89" class="st5"/>
		</g>
		<g id="shape14-45" v:mID="14" v:groupContext="shape" transform="translate(396.849,-581.102)">
			<title>Sheet.14</title>
			<path d="M0 792.05 L14.17 792.05 L14.17 841.89" class="st7"/>
		</g>
		<g id="shape16-50" v:mID="16" v:groupContext="shape" transform="translate(1167.87,154.488) rotate(90)">
			<title>Sheet.16</title>
			<path d="M0 841.89 L106.3 841.89" class="st5"/>
		</g>
		<g id="shape17-55" v:mID="17" v:groupContext="shape" transform="translate(325.984,-651.967)">
			<title>Sheet.17</title>
			<path d="M2.28 827.72 L2.64 827.72 L49.61 827.72 L49.61 841.89" class="st8"/>
		</g>
		<g id="shape19-63" v:mID="19" v:groupContext="shape" transform="translate(205.512,-559.843)">
			<title>Sheet.19</title>
			<desc>ID</desc>
			<v:textBlock v:margins="rect(2,2,2,2)" v:tabSpace="42.5197"/>
			<v:textRect cx="42.5197" cy="831.26" width="85.04" height="21.2598"/>
			<g id="shadow19-64" v:groupContext="shadow" v:shadowOffsetX="0.345598" v:shadowOffsetY="-1.97279" v:shadowType="1"
					transform="matrix(1,0,0,1,0.345598,1.97279)" class="st1">
				<rect x="0" y="820.63" width="85.0394" height="21.2598" class="st2"/>
			</g>
			<rect x="0" y="820.63" width="85.0394" height="21.2598" class="st9"/>
			<text x="44.1" y="834.86" class="st4" v:langID="1033"><v:paragraph v:horizAlign="1"/><v:tabList/>ID</text>		</g>
		<g id="shape21-69" v:mID="21" v:groupContext="shape" transform="translate(375.591,-559.843)">
			<title>Sheet.21</title>
			<desc>CHKSUM</desc>
			<v:textBlock v:margins="rect(2,2,2,2)" v:tabSpace="42.5197"/>
			<v:textRect cx="42.5197" cy="831.26" width="85.04" height="21.2598"/>
			<g id="shadow21-70" v:groupContext="shadow" v:shadowOffsetX="0.345598" v:shadowOffsetY="-1.97279" v:shadowType="1"
					transform="matrix(1,0,0,1,0.345598,1.97279)" class="st1">
				<rect x="0" y="820.63" width="85.0394" height="21.2598" class="st2"/>
			</g>
			<rect x="0" y="820.63" width="85.0394" height="21.2598" class="st10"/>
			<text x="20.73" y="834.86" class="st4" v:langID="1033"><v:paragraph v:horizAlign="1"/><v:tabList/>CHKSUM</text>		</g>
		<g id="shape23-75" v:mID="23" v:groupContext="shape" transform="translate(1096.53,205.777) rotate(89.6305)">
			<title>Sheet.23</title>
			<path d="M2.28 841.89 L2.64 841.89 L49.61 841.89" class="st11"/>
		</g>
		<g id="shape24-82" v:mID="24" v:groupContext="shape" transform="translate(290.551,-559.843)">
			<title>Sheet.24</title>
			<desc>DATA</desc>
			<v:textBlock v:margins="rect(2,2,2,2)" v:tabSpace="42.5197"/>
			<v:textRect cx="42.5197" cy="831.26" width="85.04" height="21.2598"/>
			<g id="shadow24-83" v:groupContext="shadow" v:shadowOffsetX="0.345598" v:shadowOffsetY="-1.97279" v:shadowType="1"
					transform="matrix(1,0,0,1,0.345598,1.97279)" class="st1">
				<rect x="0" y="820.63" width="85.0394" height="21.2598" class="st2"/>
			</g>
			<rect x="0" y="820.63" width="85.0394" height="21.2598" class="st3"/>
			<text x="28.96" y="834.86" class="st4" v:langID="1033"><v:paragraph v:horizAlign="1"/><v:tabList/>DATA</text>		</g>
		<g id="shape25-88" v:mID="25" v:groupContext="shape" transform="translate(205.512,-557.008)">
			<title>Sheet.25</title>
			<g id="shadow25-89" v:groupContext="shadow" v:shadowOffsetX="0.345598" v:shadowOffsetY="-1.97279" v:shadowType="1"
					transform="matrix(1,0,0,1,0.345598,1.97279)" class="st1">
				<rect x="0" y="820.63" width="7.08661" height="21.2598" class="st2"/>
			</g>
			<rect x="0" y="820.63" width="7.08661" height="21.2598" class="st12"/>
		</g>
		<g id="shape26-93" v:mID="26" v:groupContext="shape" transform="translate(240.236,-557.008)">
			<title>Sheet.26</title>
			<g id="shadow26-94" v:groupContext="shadow" v:shadowOffsetX="0.345598" v:shadowOffsetY="-1.97279" v:shadowType="1"
					transform="matrix(1,0,0,1,0.345598,1.97279)" class="st1">
				<rect x="0" y="820.63" width="7.08661" height="21.2598" class="st2"/>
			</g>
			<rect x="0" y="820.63" width="7.08661" height="21.2598" class="st13"/>
		</g>
		<g id="shape27-98" v:mID="27" v:groupContext="shape" transform="translate(192.047,-539.669)">
			<title>Sheet.27</title>
			<desc>Valid</desc>
			<v:textBlock v:margins="rect(2,2,2,2)" v:tabSpace="42.5197"/>
			<v:textRect cx="16.5623" cy="835.89" width="33.13" height="12"/>
			<rect x="0" y="829.89" width="33.1246" height="12" class="st14"/>
			<text x="4.38" y="839.49" class="st15" v:langID="1033"><v:paragraph v:horizAlign="1"/><v:tabList/>Valid</text>		</g>
		<g id="shape29-101" v:mID="29" v:groupContext="shape" transform="translate(233.15,-539.669)">
			<title>Sheet.29</title>
			<desc>Epoch</desc>
			<v:textBlock v:margins="rect(2,2,2,2)" v:tabSpace="42.5197"/>
			<v:textRect cx="21.2598" cy="835.89" width="42.52" height="12"/>
			<rect x="0" y="829.89" width="42.5197" height="12" class="st14"/>
			<text x="6.32" y="839.49" class="st15" v:langID="1033"><v:paragraph v:horizAlign="1"/><v:tabList/>Epoch</text>		</g>
		<g id="shape40-104" v:mID="40" v:groupContext="shape" transform="translate(304.724,-689.575)">
			<title>Sheet.40</title>
			<desc>Data[Size]</desc>
			<v:textBlock v:margins="rect(2,2,2,2)" v:tabSpace="42.5197"/>
			<v:textRect cx="30.189" cy="835.89" width="60.38" height="12"/>
			<rect x="0" y="829.89" width="60.378" height="12" class="st14"/>
			<text x="5.57" y="839.49" class="st15" v:langID="1033"><v:paragraph v:horizAlign="1"/><v:tabList/>Data[Size]</text>		</g>
		<g id="shape41-107" v:mID="41" v:groupContext="shape" transform="translate(204.704,-689.575)">
			<title>Sheet.41</title>
			<desc>Tag</desc>
			<v:textBlock v:margins="rect(2,2,2,2)" v:tabSpace="42.5197"/>
			<v:textRect cx="14.9811" cy="835.89" width="29.97" height="12"/>
			<rect x="0" y="829.89" width="29.9622" height="12" class="st14"/>
			<text x="6.36" y="839.49" class="st15" v:langID="1033"><v:paragraph v:horizAlign="1"/><v:tabList/>Tag</text>		</g>
		<g id="shape42-110" v:mID="42" v:groupContext="shape" transform="translate(148.011,-689.403)">
			<title>Sheet.42</title>
			<desc>Size</desc>
			<v:textBlock v:margins="rect(2,2,2,2)" v:tabSpace="42.5197"/>
			<v:textRect cx="14.9811" cy="835.89" width="29.97" height="12"/>
			<rect x="0" y="829.89" width="29.9622" height="12" class="st14"/>
			<text x="5.49" y="839.49" class="st15" v:langID="1033"><v:paragraph v:horizAlign="1"/><v:tabList/>Size</text>		</g>
		<g id="shape45-113" v:mID="45" v:groupContext="shape" transform="translate(63.7795,-614.907)">
			<title>Sheet.45</title>
			<desc>Instance ID</desc>
			<v:textBlock v:margins="rect(2,2,2,2)" v:tabSpace="42.5197"/>
			<v:textRect cx="24.8031" cy="824.717" width="49.61" height="34.3458"/>
			<rect x="0" y="807.544" width="49.6063" height="34.3458" class="st14"/>
			<text x="4.23" y="821.12" class="st15" v:langID="1033"><v:paragraph v:horizAlign="1"/><v:tabList/>Instance<v:newlineChar/><tspan
						x="19.6" dy="1.2em" class="st16">ID</tspan></text>		</g>
		<g id="shape46-117" v:mID="46" v:groupContext="shape" transform="translate(288.567,1152.28) rotate(180)">
			<title>Bracket</title>
			<v:userDefs>
				<v:ud v:nameU="visVersion" v:val="VT0(15):26"/>
			</v:userDefs>
			<path d="M0 841.89 A4.01075 4.01075 0 0 1 3.54 838.35 L39.01 838.35 A4.01075 4.01075 -180 0 0 42.56 834.8 A4.01075 4.01075
						 -180 0 0 46.1 838.35 L80.08 838.35 A4.01075 4.01075 0 0 1 83.62 841.89" class="st17"/>
		</g>
		<g id="shape49-120" v:mID="49" v:groupContext="shape" transform="translate(374.173,1152) rotate(180)">
			<title>Bracket.49</title>
			<v:userDefs>
				<v:ud v:nameU="visVersion" v:val="VT0(15):26"/>
			</v:userDefs>
			<path d="M0 841.89 A4.01075 4.01075 0 0 1 3.54 838.35 L39.01 838.35 A4.01075 4.01075 -180 0 0 42.56 834.8 A4.01075 4.01075
						 -180 0 0 46.1 838.35 L80.08 838.35 A4.01075 4.01075 0 0 1 83.62 841.89" class="st17"/>
		</g>
		<g id="shape50-123" v:mID="50" v:groupContext="shape" transform="translate(459.213,1152) rotate(180)">
			<title>Bracket.50</title>
			<v:userDefs>
				<v:ud v:nameU="visVersion" v:val="VT0(15):26"/>
			</v:userDefs>
			<path d="M0 841.89 A4.01075 4.01075 0 0 1 3.54 838.35 L39.01 838.35 A4.01075 4.01075 -180 0 0 42.56 834.8 A4.01075 4.01075
						 -180 0 0 46.1 838.35 L80.08 838.35 A4.01075 4.01075 0 0 1 83.62 841.89" class="st17"/>
		</g>
		<g id="shape51-126" v:mID="51" v:groupContext="shape" transform="translate(218.566,-505.323)">
			<title>Sheet.51</title>
			<desc>2 bytes</desc>
			<v:textBlock v:margins="rect(2,2,2,2)" v:tabSpace="42.5197"/>
			<v:textRect cx="28.3465" cy="835.89" width="56.7" height="12"/>
			<rect x="0" y="829.89" width="56.6929" height="12" class="st14"/>
			<text x="10.74" y="839.49" class="st15" v:langID="1033"><v:paragraph v:horizAlign="1"/><v:tabList/>2 bytes</text>		</g>
		<g id="shape53-129" v:mID="53" v:groupContext="shape" transform="translate(304.724,-504.236)">
			<title>Sheet.53</title>
			<desc>Size bytes</desc>
			<v:textBlock v:margins="rect(2,2,2,2)" v:tabSpace="42.5197"/>
			<v:textRect cx="28.3465" cy="835.89" width="56.7" height="12"/>
			<rect x="0" y="829.89" width="56.6929" height="12" class="st14"/>
			<text x="4.29" y="839.49" class="st15" v:langID="1033"><v:paragraph v:horizAlign="1"/><v:tabList/>Size bytes</text>		</g>
		<g id="shape54-132" v:mID="54" v:groupContext="shape" transform="translate(390.883,-504.236)">
			<title>Sheet.54</title>
			<desc>2 bytes</desc>
			<v:textBlock v:margins="rect(2,2,2,2)" v:tabSpace="42.5197"/>
			<v:textRect cx="28.3465" cy="835.89" width="56.7" height="12"/>
			<rect x="0" y="829.89" width="56.6929" height="12" class="st14"/>
			<text x="10.74" y="839.49" class="st15" v:langID="1033"><v:paragraph v:horizAlign="1"/><v:tabList/>2 bytes</text>		</g>
	</g>
</svg>
