<?xml version="1.0" encoding="UTF-8" standalone="no"?>
<!DOCTYPE svg PUBLIC "-//W3C//DTD SVG 1.1//EN" "http://www.w3.org/Graphics/SVG/1.1/DTD/svg11.dtd">
<!-- Generated by Microsoft Visio, SVG Export NvTxEpoch.svg Page-2 -->
<svg xmlns="http://www.w3.org/2000/svg" xmlns:xlink="http://www.w3.org/1999/xlink" xmlns:ev="http://www.w3.org/2001/xml-events"
		xmlns:v="http://schemas.microsoft.com/visio/2003/SVGExtensions/" width="8.26772in" height="11.6929in"
		viewBox="0 0 595.276 841.89" xml:space="preserve" color-interpolation-filters="sRGB" class="st15">
	<v:documentProperties v:langID="1033" v:metric="true" v:viewMarkup="false">
		<v:userDefs>
			<v:ud v:nameU="msvSubprocessMaster" v:prompt="" v:val="VT4(Multi proc/doc)"/>
			<v:ud v:nameU="msvNoAutoConnect" v:val="VT0(0):26"/>
		</v:userDefs>
	</v:documentProperties>

	<style type="text/css">
	<![CDATA[
		.st1 {visibility:visible}
		.st2 {fill:#5b9bd5;fill-opacity:0.22;filter:url(#filter_2);stroke:#5b9bd5;stroke-opacity:0.22}
		.st3 {fill:#538135;stroke:#c8c8c8;stroke-width:0.25}
		.st4 {fill:#feffff;font-family:Calibri;font-size:1.00001em}
		.st5 {fill:#c55a11;stroke:#c8c8c8;stroke-width:0.25}
		.st6 {fill:#5b9bd5;stroke:#c8c8c8;stroke-width:0.25}
		.st7 {fill:#d8d8d8;stroke:#c8c8c8;stroke-width:0.25}
		.st8 {fill:#538135;fill-opacity:0.65;stroke:#c8c8c8;stroke-width:0.25}
		.st9 {fill:#c55a11;fill-opacity:0.65;stroke:#c8c8c8;stroke-width:0.25}
		.st10 {fill:#5b9bd5;fill-opacity:0.65;stroke:#c8c8c8;stroke-width:0.25}
		.st11 {marker-end:url(#mrkr3-78);stroke:#5b9bd5;stroke-linecap:round;stroke-linejoin:round;stroke-width:2}
		.st12 {fill:#5b9bd5;fill-opacity:1;stroke:#5b9bd5;stroke-opacity:1;stroke-width:0.44247787610619}
		.st13 {fill:none;stroke:none;stroke-width:0.25}
		.st14 {fill:#5b9bd5;font-family:Calibri;font-size:1.00001em}
		.st15 {fill:none;fill-rule:evenodd;font-size:12px;overflow:visible;stroke-linecap:square;stroke-miterlimit:3}
	]]>
	</style>

	<defs id="Markers">
		<g id="lend3">
			<path d="M 2 1 L 0 0 L 2 -1 " style="stroke-linecap:round;stroke-linejoin:round;fill:none"/>
		</g>
		<marker id="mrkr3-78" class="st12" v:arrowType="3" v:arrowSize="2" orient="auto" markerUnits="strokeWidth"
				overflow="visible">
			<use xlink:href="#lend3" transform="scale(-2.26,-2.26) "/>
		</marker>
	</defs>
	<defs id="Filters">
		<filter id="filter_2">
			<feGaussianBlur stdDeviation="2"/>
		</filter>
	</defs>
	<g v:mID="4" v:index="2" v:groupContext="foregroundPage">
		<v:userDefs>
			<v:ud v:nameU="msvThemeOrder" v:val="VT0(0):26"/>
		</v:userDefs>
		<title>Page-2</title>
		<v:pageProperties v:drawingScale="0.0393701" v:pageScale="0.0393701" v:drawingUnits="24" v:shadowOffsetX="4.25197"
				v:shadowOffsetY="-4.25197"/>
		<g id="shape1-1" v:mID="1" v:groupContext="shape" transform="translate(45.3543,-694.488)">
			<title>Sheet.1</title>
			<desc>E=0</desc>
			<v:textBlock v:margins="rect(2,2,2,2)" v:tabSpace="42.5197"/>
			<v:textRect cx="42.5197" cy="831.26" width="85.04" height="21.2598"/>
			<g id="shadow1-2" v:groupContext="shadow" v:shadowOffsetX="0.345598" v:shadowOffsetY="-1.97279" v:shadowType="1"
					transform="matrix(1,0,0,1,0.345598,1.97279)" class="st1">
				<rect x="0" y="820.63" width="85.0394" height="21.2598" class="st2"/>
			</g>
			<rect x="0" y="820.63" width="85.0394" height="21.2598" class="st3"/>
			<text x="33.56" y="834.86" class="st4" v:langID="1033"><v:paragraph v:horizAlign="1"/><v:tabList/>E=0</text>		</g>
		<g id="shape2-7" v:mID="2" v:groupContext="shape" transform="translate(215.433,-694.488)">
			<title>Sheet.2</title>
			<desc>CHKSUM</desc>
			<v:textBlock v:margins="rect(2,2,2,2)" v:tabSpace="42.5197"/>
			<v:textRect cx="42.5197" cy="831.26" width="85.04" height="21.2598"/>
			<g id="shadow2-8" v:groupContext="shadow" v:shadowOffsetX="0.345598" v:shadowOffsetY="-1.97279" v:shadowType="1"
					transform="matrix(1,0,0,1,0.345598,1.97279)" class="st1">
				<rect x="0" y="820.63" width="85.0394" height="21.2598" class="st2"/>
			</g>
			<rect x="0" y="820.63" width="85.0394" height="21.2598" class="st5"/>
			<text x="20.73" y="834.86" class="st4" v:langID="1033"><v:paragraph v:horizAlign="1"/><v:tabList/>CHKSUM</text>		</g>
		<g id="shape3-13" v:mID="3" v:groupContext="shape" transform="translate(130.394,-694.488)">
			<title>Sheet.3</title>
			<desc>DATA</desc>
			<v:textBlock v:margins="rect(2,2,2,2)" v:tabSpace="42.5197"/>
			<v:textRect cx="42.5197" cy="831.26" width="85.04" height="21.2598"/>
			<g id="shadow3-14" v:groupContext="shadow" v:shadowOffsetX="0.345598" v:shadowOffsetY="-1.97279" v:shadowType="1"
					transform="matrix(1,0,0,1,0.345598,1.97279)" class="st1">
				<rect x="0" y="820.63" width="85.0394" height="21.2598" class="st2"/>
			</g>
			<rect x="0" y="820.63" width="85.0394" height="21.2598" class="st6"/>
			<text x="28.96" y="834.86" class="st4" v:langID="1033"><v:paragraph v:horizAlign="1"/><v:tabList/>DATA</text>		</g>
		<g id="shape8-19" v:mID="8" v:groupContext="shape" transform="translate(300.472,-694.488)">
			<title>Sheet.8</title>
			<desc>ID</desc>
			<v:textBlock v:margins="rect(2,2,2,2)" v:tabSpace="42.5197"/>
			<v:textRect cx="42.5197" cy="831.26" width="85.04" height="21.2598"/>
			<g id="shadow8-20" v:groupContext="shadow" v:shadowOffsetX="0.345598" v:shadowOffsetY="-1.97279" v:shadowType="1"
					transform="matrix(1,0,0,1,0.345598,1.97279)" class="st1">
				<rect x="0" y="820.63" width="85.0394" height="21.2598" class="st2"/>
			</g>
			<rect x="0" y="820.63" width="85.0394" height="21.2598" class="st7"/>
			<text x="44.1" y="834.86" class="st4" v:langID="1033"><v:paragraph v:horizAlign="1"/><v:tabList/>ID</text>		</g>
		<g id="shape9-25" v:mID="9" v:groupContext="shape" transform="translate(470.551,-694.488)">
			<title>Sheet.9</title>
			<desc>CHKSUM</desc>
			<v:textBlock v:margins="rect(2,2,2,2)" v:tabSpace="42.5197"/>
			<v:textRect cx="42.5197" cy="831.26" width="85.04" height="21.2598"/>
			<g id="shadow9-26" v:groupContext="shadow" v:shadowOffsetX="0.345598" v:shadowOffsetY="-1.97279" v:shadowType="1"
					transform="matrix(1,0,0,1,0.345598,1.97279)" class="st1">
				<rect x="0" y="820.63" width="85.0394" height="21.2598" class="st2"/>
			</g>
			<rect x="0" y="820.63" width="85.0394" height="21.2598" class="st7"/>
			<text x="20.73" y="834.86" class="st4" v:langID="1033"><v:paragraph v:horizAlign="1"/><v:tabList/>CHKSUM</text>		</g>
		<g id="shape10-31" v:mID="10" v:groupContext="shape" transform="translate(385.512,-694.488)">
			<title>Sheet.10</title>
			<desc>DATA</desc>
			<v:textBlock v:margins="rect(2,2,2,2)" v:tabSpace="42.5197"/>
			<v:textRect cx="42.5197" cy="831.26" width="85.04" height="21.2598"/>
			<g id="shadow10-32" v:groupContext="shadow" v:shadowOffsetX="0.345598" v:shadowOffsetY="-1.97279" v:shadowType="1"
					transform="matrix(1,0,0,1,0.345598,1.97279)" class="st1">
				<rect x="0" y="820.63" width="85.0394" height="21.2598" class="st2"/>
			</g>
			<rect x="0" y="820.63" width="85.0394" height="21.2598" class="st7"/>
			<text x="28.96" y="834.86" class="st4" v:langID="1033"><v:paragraph v:horizAlign="1"/><v:tabList/>DATA</text>		</g>
		<g id="shape11-37" v:mID="11" v:groupContext="shape" transform="translate(45.3543,-637.795)">
			<title>Sheet.11</title>
			<desc>E=0</desc>
			<v:textBlock v:margins="rect(2,2,2,2)" v:tabSpace="42.5197"/>
			<v:textRect cx="42.5197" cy="831.26" width="85.04" height="21.2598"/>
			<g id="shadow11-38" v:groupContext="shadow" v:shadowOffsetX="0.345598" v:shadowOffsetY="-1.97279" v:shadowType="1"
					transform="matrix(1,0,0,1,0.345598,1.97279)" class="st1">
				<rect x="0" y="820.63" width="85.0394" height="21.2598" class="st2"/>
			</g>
			<rect x="0" y="820.63" width="85.0394" height="21.2598" class="st8"/>
			<text x="33.56" y="834.86" class="st4" v:langID="1033"><v:paragraph v:horizAlign="1"/><v:tabList/>E=0</text>		</g>
		<g id="shape12-43" v:mID="12" v:groupContext="shape" transform="translate(215.433,-637.795)">
			<title>Sheet.12</title>
			<desc>CHKSUM</desc>
			<v:textBlock v:margins="rect(2,2,2,2)" v:tabSpace="42.5197"/>
			<v:textRect cx="42.5197" cy="831.26" width="85.04" height="21.2598"/>
			<g id="shadow12-44" v:groupContext="shadow" v:shadowOffsetX="0.345598" v:shadowOffsetY="-1.97279" v:shadowType="1"
					transform="matrix(1,0,0,1,0.345598,1.97279)" class="st1">
				<rect x="0" y="820.63" width="85.0394" height="21.2598" class="st2"/>
			</g>
			<rect x="0" y="820.63" width="85.0394" height="21.2598" class="st9"/>
			<text x="20.73" y="834.86" class="st4" v:langID="1033"><v:paragraph v:horizAlign="1"/><v:tabList/>CHKSUM</text>		</g>
		<g id="shape13-49" v:mID="13" v:groupContext="shape" transform="translate(130.394,-637.795)">
			<title>Sheet.13</title>
			<desc>DATA</desc>
			<v:textBlock v:margins="rect(2,2,2,2)" v:tabSpace="42.5197"/>
			<v:textRect cx="42.5197" cy="831.26" width="85.04" height="21.2598"/>
			<g id="shadow13-50" v:groupContext="shadow" v:shadowOffsetX="0.345598" v:shadowOffsetY="-1.97279" v:shadowType="1"
					transform="matrix(1,0,0,1,0.345598,1.97279)" class="st1">
				<rect x="0" y="820.63" width="85.0394" height="21.2598" class="st2"/>
			</g>
			<rect x="0" y="820.63" width="85.0394" height="21.2598" class="st10"/>
			<text x="28.96" y="834.86" class="st4" v:langID="1033"><v:paragraph v:horizAlign="1"/><v:tabList/>DATA</text>		</g>
		<g id="shape17-55" v:mID="17" v:groupContext="shape" transform="translate(300.838,-637.795)">
			<title>Sheet.17</title>
			<desc>E=0</desc>
			<v:textBlock v:margins="rect(2,2,2,2)" v:tabSpace="42.5197"/>
			<v:textRect cx="42.5197" cy="831.26" width="85.04" height="21.2598"/>
			<g id="shadow17-56" v:groupContext="shadow" v:shadowOffsetX="0.345598" v:shadowOffsetY="-1.97279" v:shadowType="1"
					transform="matrix(1,0,0,1,0.345598,1.97279)" class="st1">
				<rect x="0" y="820.63" width="85.0394" height="21.2598" class="st2"/>
			</g>
			<rect x="0" y="820.63" width="85.0394" height="21.2598" class="st3"/>
			<text x="33.56" y="834.86" class="st4" v:langID="1033"><v:paragraph v:horizAlign="1"/><v:tabList/>E=0</text>		</g>
		<g id="shape18-61" v:mID="18" v:groupContext="shape" transform="translate(470.917,-637.795)">
			<title>Sheet.18</title>
			<desc>CHKSUM</desc>
			<v:textBlock v:margins="rect(2,2,2,2)" v:tabSpace="42.5197"/>
			<v:textRect cx="42.5197" cy="831.26" width="85.04" height="21.2598"/>
			<g id="shadow18-62" v:groupContext="shadow" v:shadowOffsetX="0.345598" v:shadowOffsetY="-1.97279" v:shadowType="1"
					transform="matrix(1,0,0,1,0.345598,1.97279)" class="st1">
				<rect x="0" y="820.63" width="85.0394" height="21.2598" class="st2"/>
			</g>
			<rect x="0" y="820.63" width="85.0394" height="21.2598" class="st5"/>
			<text x="20.73" y="834.86" class="st4" v:langID="1033"><v:paragraph v:horizAlign="1"/><v:tabList/>CHKSUM</text>		</g>
		<g id="shape19-67" v:mID="19" v:groupContext="shape" transform="translate(385.878,-637.795)">
			<title>Sheet.19</title>
			<desc>DATA</desc>
			<v:textBlock v:margins="rect(2,2,2,2)" v:tabSpace="42.5197"/>
			<v:textRect cx="42.5197" cy="831.26" width="85.04" height="21.2598"/>
			<g id="shadow19-68" v:groupContext="shadow" v:shadowOffsetX="0.345598" v:shadowOffsetY="-1.97279" v:shadowType="1"
					transform="matrix(1,0,0,1,0.345598,1.97279)" class="st1">
				<rect x="0" y="820.63" width="85.0394" height="21.2598" class="st2"/>
			</g>
			<rect x="0" y="820.63" width="85.0394" height="21.2598" class="st6"/>
			<text x="28.96" y="834.86" class="st4" v:langID="1033"><v:paragraph v:horizAlign="1"/><v:tabList/>DATA</text>		</g>
		<g id="shape22-73" v:mID="22" v:groupContext="shape" transform="translate(898.583,108.539) rotate(90)">
			<title>Sheet.22</title>
			<path d="M0 841.89 L17.6 841.89" class="st11"/>
		</g>
		<g id="shape23-79" v:mID="23" v:groupContext="shape" transform="translate(45.7201,-581.102)">
			<title>Sheet.23</title>
			<desc>E=1</desc>
			<v:textBlock v:margins="rect(2,2,2,2)" v:tabSpace="42.5197"/>
			<v:textRect cx="42.5197" cy="831.26" width="85.04" height="21.2598"/>
			<g id="shadow23-80" v:groupContext="shadow" v:shadowOffsetX="0.345598" v:shadowOffsetY="-1.97279" v:shadowType="1"
					transform="matrix(1,0,0,1,0.345598,1.97279)" class="st1">
				<rect x="0" y="820.63" width="85.0394" height="21.2598" class="st2"/>
			</g>
			<rect x="0" y="820.63" width="85.0394" height="21.2598" class="st3"/>
			<text x="33.56" y="834.86" class="st4" v:langID="1033"><v:paragraph v:horizAlign="1"/><v:tabList/>E=1</text>		</g>
		<g id="shape24-85" v:mID="24" v:groupContext="shape" transform="translate(215.799,-581.102)">
			<title>Sheet.24</title>
			<desc>CHKSUM</desc>
			<v:textBlock v:margins="rect(2,2,2,2)" v:tabSpace="42.5197"/>
			<v:textRect cx="42.5197" cy="831.26" width="85.04" height="21.2598"/>
			<g id="shadow24-86" v:groupContext="shadow" v:shadowOffsetX="0.345598" v:shadowOffsetY="-1.97279" v:shadowType="1"
					transform="matrix(1,0,0,1,0.345598,1.97279)" class="st1">
				<rect x="0" y="820.63" width="85.0394" height="21.2598" class="st2"/>
			</g>
			<rect x="0" y="820.63" width="85.0394" height="21.2598" class="st5"/>
			<text x="20.73" y="834.86" class="st4" v:langID="1033"><v:paragraph v:horizAlign="1"/><v:tabList/>CHKSUM</text>		</g>
		<g id="shape25-91" v:mID="25" v:groupContext="shape" transform="translate(130.759,-581.102)">
			<title>Sheet.25</title>
			<desc>DATA</desc>
			<v:textBlock v:margins="rect(2,2,2,2)" v:tabSpace="42.5197"/>
			<v:textRect cx="42.5197" cy="831.26" width="85.04" height="21.2598"/>
			<g id="shadow25-92" v:groupContext="shadow" v:shadowOffsetX="0.345598" v:shadowOffsetY="-1.97279" v:shadowType="1"
					transform="matrix(1,0,0,1,0.345598,1.97279)" class="st1">
				<rect x="0" y="820.63" width="85.0394" height="21.2598" class="st2"/>
			</g>
			<rect x="0" y="820.63" width="85.0394" height="21.2598" class="st6"/>
			<text x="28.96" y="834.86" class="st4" v:langID="1033"><v:paragraph v:horizAlign="1"/><v:tabList/>DATA</text>		</g>
		<g id="shape26-97" v:mID="26" v:groupContext="shape" transform="translate(301.204,-581.102)">
			<title>Sheet.26</title>
			<desc>E=0</desc>
			<v:textBlock v:margins="rect(2,2,2,2)" v:tabSpace="42.5197"/>
			<v:textRect cx="42.5197" cy="831.26" width="85.04" height="21.2598"/>
			<g id="shadow26-98" v:groupContext="shadow" v:shadowOffsetX="0.345598" v:shadowOffsetY="-1.97279" v:shadowType="1"
					transform="matrix(1,0,0,1,0.345598,1.97279)" class="st1">
				<rect x="0" y="820.63" width="85.0394" height="21.2598" class="st2"/>
			</g>
			<rect x="0" y="820.63" width="85.0394" height="21.2598" class="st8"/>
			<text x="33.56" y="834.86" class="st4" v:langID="1033"><v:paragraph v:horizAlign="1"/><v:tabList/>E=0</text>		</g>
		<g id="shape27-103" v:mID="27" v:groupContext="shape" transform="translate(471.283,-581.102)">
			<title>Sheet.27</title>
			<desc>CHKSUM</desc>
			<v:textBlock v:margins="rect(2,2,2,2)" v:tabSpace="42.5197"/>
			<v:textRect cx="42.5197" cy="831.26" width="85.04" height="21.2598"/>
			<g id="shadow27-104" v:groupContext="shadow" v:shadowOffsetX="0.345598" v:shadowOffsetY="-1.97279" v:shadowType="1"
					transform="matrix(1,0,0,1,0.345598,1.97279)" class="st1">
				<rect x="0" y="820.63" width="85.0394" height="21.2598" class="st2"/>
			</g>
			<rect x="0" y="820.63" width="85.0394" height="21.2598" class="st9"/>
			<text x="20.73" y="834.86" class="st4" v:langID="1033"><v:paragraph v:horizAlign="1"/><v:tabList/>CHKSUM</text>		</g>
		<g id="shape28-109" v:mID="28" v:groupContext="shape" transform="translate(386.243,-581.102)">
			<title>Sheet.28</title>
			<desc>DATA</desc>
			<v:textBlock v:margins="rect(2,2,2,2)" v:tabSpace="42.5197"/>
			<v:textRect cx="42.5197" cy="831.26" width="85.04" height="21.2598"/>
			<g id="shadow28-110" v:groupContext="shadow" v:shadowOffsetX="0.345598" v:shadowOffsetY="-1.97279" v:shadowType="1"
					transform="matrix(1,0,0,1,0.345598,1.97279)" class="st1">
				<rect x="0" y="820.63" width="85.0394" height="21.2598" class="st2"/>
			</g>
			<rect x="0" y="820.63" width="85.0394" height="21.2598" class="st10"/>
			<text x="28.96" y="834.86" class="st4" v:langID="1033"><v:paragraph v:horizAlign="1"/><v:tabList/>DATA</text>		</g>
		<g id="shape29-115" v:mID="29" v:groupContext="shape" transform="translate(898.583,221.925) rotate(90)">
			<title>Sheet.29</title>
			<path d="M0 841.89 L17.6 841.89" class="st11"/>
		</g>
		<g id="shape30-120" v:mID="30" v:groupContext="shape" transform="translate(44.9886,-524.409)">
			<title>Sheet.30</title>
			<desc>E=1</desc>
			<v:textBlock v:margins="rect(2,2,2,2)" v:tabSpace="42.5197"/>
			<v:textRect cx="42.5197" cy="831.26" width="85.04" height="21.2598"/>
			<g id="shadow30-121" v:groupContext="shadow" v:shadowOffsetX="0.345598" v:shadowOffsetY="-1.97279" v:shadowType="1"
					transform="matrix(1,0,0,1,0.345598,1.97279)" class="st1">
				<rect x="0" y="820.63" width="85.0394" height="21.2598" class="st2"/>
			</g>
			<rect x="0" y="820.63" width="85.0394" height="21.2598" class="st8"/>
			<text x="33.56" y="834.86" class="st4" v:langID="1033"><v:paragraph v:horizAlign="1"/><v:tabList/>E=1</text>		</g>
		<g id="shape31-126" v:mID="31" v:groupContext="shape" transform="translate(215.067,-524.409)">
			<title>Sheet.31</title>
			<desc>CHKSUM</desc>
			<v:textBlock v:margins="rect(2,2,2,2)" v:tabSpace="42.5197"/>
			<v:textRect cx="42.5197" cy="831.26" width="85.04" height="21.2598"/>
			<g id="shadow31-127" v:groupContext="shadow" v:shadowOffsetX="0.345598" v:shadowOffsetY="-1.97279" v:shadowType="1"
					transform="matrix(1,0,0,1,0.345598,1.97279)" class="st1">
				<rect x="0" y="820.63" width="85.0394" height="21.2598" class="st2"/>
			</g>
			<rect x="0" y="820.63" width="85.0394" height="21.2598" class="st9"/>
			<text x="20.73" y="834.86" class="st4" v:langID="1033"><v:paragraph v:horizAlign="1"/><v:tabList/>CHKSUM</text>		</g>
		<g id="shape32-132" v:mID="32" v:groupContext="shape" transform="translate(130.028,-524.409)">
			<title>Sheet.32</title>
			<desc>DATA</desc>
			<v:textBlock v:margins="rect(2,2,2,2)" v:tabSpace="42.5197"/>
			<v:textRect cx="42.5197" cy="831.26" width="85.04" height="21.2598"/>
			<g id="shadow32-133" v:groupContext="shadow" v:shadowOffsetX="0.345598" v:shadowOffsetY="-1.97279" v:shadowType="1"
					transform="matrix(1,0,0,1,0.345598,1.97279)" class="st1">
				<rect x="0" y="820.63" width="85.0394" height="21.2598" class="st2"/>
			</g>
			<rect x="0" y="820.63" width="85.0394" height="21.2598" class="st10"/>
			<text x="28.96" y="834.86" class="st4" v:langID="1033"><v:paragraph v:horizAlign="1"/><v:tabList/>DATA</text>		</g>
		<g id="shape33-138" v:mID="33" v:groupContext="shape" transform="translate(300.472,-524.409)">
			<title>Sheet.33</title>
			<desc>E=1</desc>
			<v:textBlock v:margins="rect(2,2,2,2)" v:tabSpace="42.5197"/>
			<v:textRect cx="42.5197" cy="831.26" width="85.04" height="21.2598"/>
			<g id="shadow33-139" v:groupContext="shadow" v:shadowOffsetX="0.345598" v:shadowOffsetY="-1.97279" v:shadowType="1"
					transform="matrix(1,0,0,1,0.345598,1.97279)" class="st1">
				<rect x="0" y="820.63" width="85.0394" height="21.2598" class="st2"/>
			</g>
			<rect x="0" y="820.63" width="85.0394" height="21.2598" class="st3"/>
			<text x="33.56" y="834.86" class="st4" v:langID="1033"><v:paragraph v:horizAlign="1"/><v:tabList/>E=1</text>		</g>
		<g id="shape34-144" v:mID="34" v:groupContext="shape" transform="translate(470.551,-524.409)">
			<title>Sheet.34</title>
			<desc>CHKSUM</desc>
			<v:textBlock v:margins="rect(2,2,2,2)" v:tabSpace="42.5197"/>
			<v:textRect cx="42.5197" cy="831.26" width="85.04" height="21.2598"/>
			<g id="shadow34-145" v:groupContext="shadow" v:shadowOffsetX="0.345598" v:shadowOffsetY="-1.97279" v:shadowType="1"
					transform="matrix(1,0,0,1,0.345598,1.97279)" class="st1">
				<rect x="0" y="820.63" width="85.0394" height="21.2598" class="st2"/>
			</g>
			<rect x="0" y="820.63" width="85.0394" height="21.2598" class="st5"/>
			<text x="20.73" y="834.86" class="st4" v:langID="1033"><v:paragraph v:horizAlign="1"/><v:tabList/>CHKSUM</text>		</g>
		<g id="shape35-150" v:mID="35" v:groupContext="shape" transform="translate(385.512,-524.409)">
			<title>Sheet.35</title>
			<desc>DATA</desc>
			<v:textBlock v:margins="rect(2,2,2,2)" v:tabSpace="42.5197"/>
			<v:textRect cx="42.5197" cy="831.26" width="85.04" height="21.2598"/>
			<g id="shadow35-151" v:groupContext="shadow" v:shadowOffsetX="0.345598" v:shadowOffsetY="-1.97279" v:shadowType="1"
					transform="matrix(1,0,0,1,0.345598,1.97279)" class="st1">
				<rect x="0" y="820.63" width="85.0394" height="21.2598" class="st2"/>
			</g>
			<rect x="0" y="820.63" width="85.0394" height="21.2598" class="st6"/>
			<text x="28.96" y="834.86" class="st4" v:langID="1033"><v:paragraph v:horizAlign="1"/><v:tabList/>DATA</text>		</g>
		<g id="shape36-156" v:mID="36" v:groupContext="shape" transform="translate(1153.7,278.618) rotate(90)">
			<title>Sheet.36</title>
			<path d="M0 841.89 L17.6 841.89" class="st11"/>
		</g>
		<g id="shape37-161" v:mID="37" v:groupContext="shape" transform="translate(1153.7,165.232) rotate(90)">
			<title>Sheet.37</title>
			<path d="M0 841.89 L17.6 841.89" class="st11"/>
		</g>
		<g id="shape38-166" v:mID="38" v:groupContext="shape" transform="translate(56.6929,-731.339)">
			<title>Sheet.38</title>
			<desc>1st write</desc>
			<v:textBlock v:margins="rect(2,2,2,2)" v:tabSpace="42.5197"/>
			<v:textRect cx="28.3465" cy="835.89" width="56.7" height="12"/>
			<rect x="0" y="829.89" width="56.6929" height="12" class="st13"/>
			<text x="6.84" y="839.49" class="st14" v:langID="1033"><v:paragraph v:horizAlign="1"/><v:tabList/>1st write</text>		</g>
		<g id="shape40-169" v:mID="40" v:groupContext="shape" transform="translate(314.646,-670.772)">
			<title>Sheet.40</title>
			<desc>2nd write</desc>
			<v:textBlock v:margins="rect(2,2,2,2)" v:tabSpace="42.5197"/>
			<v:textRect cx="28.3465" cy="835.89" width="56.7" height="12"/>
			<rect x="0" y="829.89" width="56.6929" height="12" class="st13"/>
			<text x="4.89" y="839.49" class="st14" v:langID="1033"><v:paragraph v:horizAlign="1"/><v:tabList/>2nd write</text>		</g>
		<g id="shape41-172" v:mID="41" v:groupContext="shape" transform="translate(59.8933,-612.283)">
			<title>Sheet.41</title>
			<desc>3d write</desc>
			<v:textBlock v:margins="rect(2,2,2,2)" v:tabSpace="42.5197"/>
			<v:textRect cx="28.3465" cy="835.89" width="56.7" height="12"/>
			<rect x="0" y="829.89" width="56.6929" height="12" class="st13"/>
			<text x="8.04" y="839.49" class="st14" v:langID="1033"><v:paragraph v:horizAlign="1"/><v:tabList/>3d write</text>		</g>
		<g id="shape42-175" v:mID="42" v:groupContext="shape" transform="translate(314.646,-555.591)">
			<title>Sheet.42</title>
			<desc>4th write</desc>
			<v:textBlock v:margins="rect(2,2,2,2)" v:tabSpace="42.5197"/>
			<v:textRect cx="28.3465" cy="835.89" width="56.7" height="12"/>
			<rect x="0" y="829.89" width="56.6929" height="12" class="st13"/>
			<text x="6.03" y="839.49" class="st14" v:langID="1033"><v:paragraph v:horizAlign="1"/><v:tabList/>4th write</text>		</g>
	</g>
</svg>
